<svg version="1.1" xmlns="http://www.w3.org/2000/svg" viewBox="0 0 732 376" width="732" height="376" filter="invert(93%) hue-rotate(180deg)">
  <!-- svg-source:excalidraw -->
  
  <defs>
    <style class="style-fonts">
      @font-face {
        font-family: "Virgil";
        src: url("https://excalidraw.com/Virgil.woff2");
      }
      @font-face {
        font-family: "Cascadia";
        src: url("https://excalidraw.com/Cascadia.woff2");
      }
    </style>
  </defs>
  <rect x="0" y="0" width="732" height="376" fill="#ffffff"></rect><g stroke-linecap="round" transform="translate(318 62.5) rotate(0 60.5 33.5)"><path d="M16.75 0 M16.75 0 C47.07 -0.66, 77.23 2.03, 104.25 0 M16.75 0 C49.96 0.05, 82.52 0.64, 104.25 0 M104.25 0 C116.57 0.71, 122.46 6.23, 121 16.75 M104.25 0 C117.6 0.94, 121.9 5.34, 121 16.75 M121 16.75 C122.9 27.76, 121.49 40.96, 121 50.25 M121 16.75 C120.43 29.03, 121.41 40.58, 121 50.25 M121 50.25 C119.25 60.08, 114.78 67.46, 104.25 67 M121 50.25 C123.25 61.94, 117.43 65.77, 104.25 67 M104.25 67 C85.96 65.75, 65.71 65.6, 16.75 67 M104.25 67 C85.86 65.48, 67.89 66.45, 16.75 67 M16.75 67 C4.01 65.88, -1.35 61.53, 0 50.25 M16.75 67 C7.04 65.86, 2.1 59.25, 0 50.25 M0 50.25 C-0.45 38.87, -0.03 25.41, 0 16.75 M0 50.25 C-0.68 38.29, -1.15 25.99, 0 16.75 M0 16.75 C0.52 6.78, 6.85 0.7, 16.75 0 M0 16.75 C1.94 4.44, 7.41 -0.61, 16.75 0" stroke="#000000" stroke-width="1" fill="none"></path></g><g transform="translate(356.5 83) rotate(0 22 13)"><text x="22" y="19" font-family="Virgil, Segoe UI Emoji" font-size="20px" fill="#000000" text-anchor="middle" style="white-space: pre;" direction="ltr">node</text></g><g stroke-linecap="round" transform="translate(510.5 208) rotate(0 60.5 33.5)"><path d="M16.75 0 M16.75 0 C40.78 0.95, 66.69 -1.51, 104.25 0 M16.75 0 C35.38 0.84, 54.45 -0.83, 104.25 0 M104.25 0 C114.26 -0.25, 121.42 5.03, 121 16.75 M104.25 0 C117.34 -0.49, 120.86 5.91, 121 16.75 M121 16.75 C121.25 26.04, 120.89 33.47, 121 50.25 M121 16.75 C120.41 25.17, 120.31 32.26, 121 50.25 M121 50.25 C121.27 61.8, 114.54 67.75, 104.25 67 M121 50.25 C120.56 61.82, 116.75 65.39, 104.25 67 M104.25 67 C73.02 65.13, 44.39 65.91, 16.75 67 M104.25 67 C80.21 66.45, 57.71 66.55, 16.75 67 M16.75 67 C6.66 66.32, 0.71 63.06, 0 50.25 M16.75 67 C5.86 64.91, -0.24 59.18, 0 50.25 M0 50.25 C-0.49 42.93, -1.29 31.9, 0 16.75 M0 50.25 C-0.71 43.85, -0.01 37.19, 0 16.75 M0 16.75 C-1.17 4.11, 6.51 -1.91, 16.75 0 M0 16.75 C-0.39 5.39, 6.06 -1.15, 16.75 0" stroke="#000000" stroke-width="1" fill="none"></path></g><g transform="translate(549 228.5) rotate(0 22 13)"><text x="22" y="19" font-family="Virgil, Segoe UI Emoji" font-size="20px" fill="#000000" text-anchor="middle" style="white-space: pre;" direction="ltr">node</text></g><g stroke-linecap="round" transform="translate(244.5 299) rotate(0 60.5 33.5)"><path d="M16.75 0 M16.75 0 C38.98 0.91, 62.69 2.56, 104.25 0 M16.75 0 C46.09 0.72, 75.41 1.34, 104.25 0 M104.25 0 C114.99 -0.12, 121.29 4.06, 121 16.75 M104.25 0 C115.17 -2.14, 121.32 7.64, 121 16.75 M121 16.75 C121.9 25.23, 119.9 37.58, 121 50.25 M121 16.75 C121.07 23.7, 121.26 31.33, 121 50.25 M121 50.25 C121.35 62.58, 114.02 68.03, 104.25 67 M121 50.25 C121.35 60.73, 114.89 65.15, 104.25 67 M104.25 67 C71.59 64.73, 35.21 67.32, 16.75 67 M104.25 67 C78.98 67.83, 55.22 67.59, 16.75 67 M16.75 67 C3.77 66.79, -1.94 60.42, 0 50.25 M16.75 67 C6.83 67.15, -0.36 62.64, 0 50.25 M0 50.25 C0.84 41.59, -0.96 35.1, 0 16.75 M0 50.25 C-1.06 40.39, -1.28 29.43, 0 16.75 M0 16.75 C-0.17 6, 4.59 -0.2, 16.75 0 M0 16.75 C1.03 4.06, 6.4 1.46, 16.75 0" stroke="#000000" stroke-width="1" fill="none"></path></g><g transform="translate(283 319.5) rotate(0 22 13)"><text x="22" y="19" font-family="Virgil, Segoe UI Emoji" font-size="20px" fill="#000000" text-anchor="middle" style="white-space: pre;" direction="ltr">node</text></g><g stroke-linecap="round"><g transform="translate(370.0378362890567 136.5) rotate(0 -23.138725266382266 75.86637028205209)"><path d="M-0.05 0.25 C-7.42 25.53, -37.56 127.01, -45.15 152.4 M-1.54 -0.66 C-9 24.19, -38.69 125.28, -46.22 150.48" stroke="#000000" stroke-width="1" fill="none"></path></g></g><mask></mask><g stroke-linecap="round"><g transform="translate(448 96.69839284152931) rotate(0 35.514722767531566 49.14082486301092)"><path d="M0.42 0.67 C12.56 16.96, 59.88 80.92, 71.85 97.12 M-0.82 -0.02 C11.3 16.46, 59.09 81.76, 71.22 98.3" stroke="#000000" stroke-width="1" fill="none"></path></g></g><mask></mask><g stroke-linecap="round"><g transform="translate(373 337.8250650801216) rotate(0 68.04352172997778 -37.90351320637362)"><path d="M-0.94 -1.02 C21.45 -13.8, 112.02 -64.36, 134.89 -76.87 M0.77 1.06 C23.47 -11.56, 114.54 -63.09, 137.02 -75.71" stroke="#000000" stroke-width="1" fill="none"></path></g></g><mask></mask><g transform="translate(622 10) rotate(0 50 13)"><text x="0" y="19" font-family="Virgil, Segoe UI Emoji" font-size="20px" fill="#000000" text-anchor="start" style="white-space: pre;" direction="ltr">user write</text></g><g stroke-linecap="round"><g transform="translate(610 31.651101690055555) rotate(0 -79.98384128163207 14.256599373317329)"><path d="M-0.84 0.13 C-27.5 4.99, -133.85 24.64, -160.4 29.36 M0.92 -0.85 C-25.79 3.66, -134.02 22.58, -160.89 27.67" stroke="#000000" stroke-width="1" fill="none"></path></g><g transform="translate(610 31.651101690055555) rotate(0 -79.98384128163207 14.256599373317329)"><path d="M-134.76 14 C-140.48 18.31, -148.95 19.52, -159.12 26.8 M-134.56 13.06 C-144.29 17.39, -152.9 23.25, -161.77 28.23" stroke="#000000" stroke-width="1" fill="none"></path></g><g transform="translate(610 31.651101690055555) rotate(0 -79.98384128163207 14.256599373317329)"><path d="M-131.11 34.2 C-137.84 33.1, -147.27 28.94, -159.12 26.8 M-130.91 33.25 C-141.78 30.73, -151.64 29.71, -161.77 28.23" stroke="#000000" stroke-width="1" fill="none"></path></g></g><mask></mask><g stroke-linecap="round"><g transform="translate(647.4796392136918 46.50000000000003) rotate(0 -13.825150723342745 76.56311686265282)"><path d="M-1 -0.38 C-5.66 25.59, -22.82 129, -27.44 154.76 M0.67 -1.63 C-4.18 24.09, -23.81 126.84, -28.32 153.03" stroke="#000000" stroke-width="1" fill="none"></path></g><g transform="translate(647.4796392136918 46.50000000000003) rotate(0 -13.825150723342745 76.56311686265282)"><path d="M-33.98 123.66 C-30.62 131.73, -29.91 145.51, -27.45 155.02 M-32.85 122.98 C-32.27 135.34, -28.7 146.11, -28.88 152.71" stroke="#000000" stroke-width="1" fill="none"></path></g><g transform="translate(647.4796392136918 46.50000000000003) rotate(0 -13.825150723342745 76.56311686265282)"><path d="M-13.8 127.35 C-17.31 133.99, -23.49 146.51, -27.45 155.02 M-12.67 126.68 C-19.88 137.56, -24.13 146.9, -28.88 152.71" stroke="#000000" stroke-width="1" fill="none"></path></g></g><mask></mask><g transform="translate(10 187) rotate(0 48.5 13)"><text x="0" y="19" font-family="Virgil, Segoe UI Emoji" font-size="20px" fill="#000000" text-anchor="start" style="white-space: pre;" direction="ltr">user read</text></g><g stroke-linecap="round"><g transform="translate(312 112.0141206486756) rotate(0 -97.2707188467682 44.75160707557913)"><path d="M-0.61 0.63 C-33.2 15.5, -162.17 73.73, -194.57 88.44 M1.28 -0.08 C-31.61 14.99, -163.49 74.56, -195.82 89.59" stroke="#000000" stroke-width="1" fill="none"></path></g><g transform="translate(312 112.0141206486756) rotate(0 -97.2707188467682 44.75160707557913)"><path d="M-173.4 67.58 C-184.03 74.77, -191.47 82.73, -194.62 88.75 M-174.83 68.6 C-181.95 75.59, -190.22 82.14, -195.4 89.06" stroke="#000000" stroke-width="1" fill="none"></path></g><g transform="translate(312 112.0141206486756) rotate(0 -97.2707188467682 44.75160707557913)"><path d="M-164.86 86.24 C-178.65 86.23, -189.37 87.03, -194.62 88.75 M-166.3 87.26 C-176.46 87.68, -187.69 87.74, -195.4 89.06" stroke="#000000" stroke-width="1" fill="none"></path></g></g><mask></mask><g stroke-linecap="round"><g transform="translate(233.0000000000001 331.822088531026) rotate(0 -65.20055845849015 -56.105355519612004)"><path d="M-1.12 0.49 C-22.59 -18.43, -108.31 -94.18, -129.81 -112.7 M0.49 -0.29 C-21.07 -19.16, -108.95 -92.96, -130.89 -111.63" stroke="#000000" stroke-width="1" fill="none"></path></g><g transform="translate(233.0000000000001 331.822088531026) rotate(0 -65.20055845849015 -56.105355519612004)"><path d="M-101.91 -101.69 C-110.36 -104.67, -112.97 -107.71, -129.13 -112.65 M-101.97 -100.72 C-113.32 -105.56, -123.57 -108.16, -130.22 -111.59" stroke="#000000" stroke-width="1" fill="none"></path></g><g transform="translate(233.0000000000001 331.822088531026) rotate(0 -65.20055845849015 -56.105355519612004)"><path d="M-115.16 -86.02 C-120.85 -92.26, -120.61 -98.68, -129.13 -112.65 M-115.22 -85.05 C-121.68 -95.77, -127.04 -104.17, -130.22 -111.59" stroke="#000000" stroke-width="1" fill="none"></path></g></g><mask></mask><g stroke-linecap="round"><g transform="translate(501 227.35726026116095) rotate(0 -196.16615875493738 -8.068270414609827)"><path d="M-0.36 -0.58 C-66.18 -3.43, -328.69 -15.11, -393.98 -17.87 M1.65 1.73 C-63.89 -0.84, -326.11 -12.81, -391.78 -16.27" stroke="#000000" stroke-width="1" fill="none"></path></g><g transform="translate(501 227.35726026116095) rotate(0 -196.16615875493738 -8.068270414609827)"><path d="M-364.1 -26.79 C-373.88 -20.39, -383.52 -19.52, -390.72 -16.01 M-362.38 -24.7 C-371.11 -23.33, -378.78 -19.76, -391.34 -16.98" stroke="#000000" stroke-width="1" fill="none"></path></g><g transform="translate(501 227.35726026116095) rotate(0 -196.16615875493738 -8.068270414609827)"><path d="M-365.09 -6.29 C-374.37 -7.67, -383.63 -14.59, -390.72 -16.01 M-363.37 -4.2 C-371.83 -8.43, -379.22 -10.45, -391.34 -16.98" stroke="#000000" stroke-width="1" fill="none"></path></g></g><mask></mask><g transform="translate(114 27) rotate(0 49.5 13)"><text x="0" y="19" font-family="Virgil, Segoe UI Emoji" font-size="20px" fill="#000000" text-anchor="start" style="white-space: pre;" direction="ltr">leaderless</text></g><g stroke-linecap="round"><g transform="translate(626.2966604669859 44) rotate(0 -134.92508566129277 126.64090764410794)"><path d="M0.35 0.24 C-44.57 42.24, -225.03 210.97, -270.2 253.04" stroke="#000000" stroke-width="1.5" fill="none" stroke-dasharray="8 9"></path></g><g transform="translate(626.2966604669859 44) rotate(0 -134.92508566129277 126.64090764410794)"><path d="M-256.19 225.87 C-258.77 231.61, -262.73 240.26, -268.23 253.47" stroke="#000000" stroke-width="1.5" fill="none"></path></g><g transform="translate(626.2966604669859 44) rotate(0 -134.92508566129277 126.64090764410794)"><path d="M-242.19 240.87 C-248.29 243.01, -255.66 248.01, -268.23 253.47" stroke="#000000" stroke-width="1.5" fill="none"></path></g></g><mask></mask></svg>